<?xml version="1.0" ?><svg data-name="Layer 1" id="Layer_1" viewBox="0 0 64 64" xmlns="http://www.w3.org/2000/svg"><title/><path d="M40.86,53A4.792,4.792,0,0,1,43,49H7a4,4,0,0,0,0,8h8Z" style="fill:#9b9c9b"/><path d="M55,61H19a4,4,0,0,1-4-4h0a4,4,0,0,1,4-4H55a4.808,4.808,0,0,0,0,8Z" style="fill:#242423"/><path d="M61,49H25a4,4,0,0,1-4-4h0a4,4,0,0,1,4-4H61a4.808,4.808,0,0,0,0,8Z" style="fill:#7ccdf4"/><path d="M47,41H11a4,4,0,0,1-4-4H7a4,4,0,0,1,4-4H47a4.808,4.808,0,0,0,0,8Z" style="fill:#2d3142"/><path d="M47,18A15,15,0,1,1,32,3c.36,0,.73.01,1.08.04A15.01,15.01,0,0,1,46.96,17C46.99,17.33,47,17.66,47,18Z" style="fill:#7ccdf4"/><path d="M32,15a2.015,2.015,0,0,1-2,2H24a2.006,2.006,0,0,0-2,2,2.015,2.015,0,0,0,2,2h4a2.006,2.006,0,0,1,2,2,2.015,2.015,0,0,1-2,2,3,3,0,0,0-3,3v3.27A15,15,0,0,1,20,9c0,2.76,2.24,4,5,4h5A2.006,2.006,0,0,1,32,15Z" style="fill:#90be6d"/><path d="M47,18A15.007,15.007,0,0,1,36,32.46V29.2A5.2,5.2,0,0,1,41.2,24a1.5,1.5,0,1,0,0-3H41a2.006,2.006,0,0,1-2-2,2.015,2.015,0,0,1,2-2h5.96C46.99,17.33,47,17.66,47,18Z" style="fill:#90be6d"/><path d="M43.31,8.16A5.924,5.924,0,0,1,39,10a5.985,5.985,0,0,1-5.92-6.96A14.912,14.912,0,0,1,43.31,8.16Z" style="fill:#90be6d"/><path d="M7,58h7.1A5.009,5.009,0,0,0,19,62H55a1,1,0,0,0,.555-1.832,3.807,3.807,0,0,1,0-6.336A1,1,0,0,0,55,52H42a3.807,3.807,0,0,1,1.337-2H61a1,1,0,0,0,.555-1.832,3.807,3.807,0,0,1,0-6.336A1,1,0,0,0,61,40H47.333a3.8,3.8,0,0,1,.222-6.168A1,1,0,0,0,47,32H39.735A16.051,16.051,0,0,0,48,18c0-.371-.011-.731-.042-1.065V16.9A16.009,16.009,0,0,0,33.166,2.044h0l-.011,0h-.005C32.774,2.012,32.382,2,32,2A16,16,0,0,0,16,18a15.962,15.962,0,0,0,8.264,14H11a5,5,0,0,0,0,10H21.026a4.9,4.9,0,0,0,0,6H7A5,5,0,0,0,7,58Zm45.692-4a5.819,5.819,0,0,0,0,6H19a3,3,0,0,1,0-6ZM47,42H58.692a5.819,5.819,0,0,0,0,6H25a3,3,0,0,1,0-6ZM45.953,19.128c-.01.124-.03.246-.043.368-.027.248-.054.5-.093.74-.024.146-.057.288-.085.433-.043.218-.085.436-.138.651-.037.152-.081.3-.124.45-.057.2-.114.406-.18.606-.051.152-.107.3-.162.451-.071.192-.143.383-.222.571-.063.15-.131.3-.2.444-.084.183-.171.365-.263.544-.074.144-.152.287-.231.43q-.147.261-.3.516c-.085.139-.172.276-.263.412-.11.166-.225.329-.343.49-.095.132-.191.263-.291.391-.124.158-.254.312-.384.465-.1.122-.208.244-.316.363-.138.151-.283.3-.428.442-.111.111-.22.223-.334.331-.155.145-.318.283-.48.422-.114.1-.224.2-.341.291-.182.146-.373.283-.563.42-.1.076-.206.157-.313.229q-.435.3-.893.56l-.054.032q-.468.265-.959.5c-.113.053-.231.1-.346.148-.2.087-.4.172-.6.25V29.2A4.2,4.2,0,0,1,41.2,25a2.5,2.5,0,1,0,0-5H41a1,1,0,0,1-1-1,.975.975,0,0,1,.307-.712A.952.952,0,0,1,41,18h5C46,18.379,45.983,18.755,45.953,19.128ZM34.223,4.184c.146.023.289.052.433.079q.419.079.828.183c.145.037.29.075.433.116.282.082.56.174.835.273.121.044.243.083.363.13a13.717,13.717,0,0,1,2.241,1.122c.1.065.2.136.307.2.25.165.5.336.736.517.115.086.227.176.338.266q.339.273.661.569c.1.094.207.187.308.284.054.053.1.112.158.167A4.994,4.994,0,0,1,34,4.157C34.077,4.168,34.151,4.172,34.223,4.184ZM32,4A6.985,6.985,0,0,0,43.184,9.6,13.722,13.722,0,0,1,45.849,16H41a3.017,3.017,0,0,0-3,3,3,3,0,0,0,3,3h.2a.5.5,0,0,1,.418.775A.5.5,0,0,1,41.2,23,6.207,6.207,0,0,0,35,29.2v2.472A14.039,14.039,0,0,1,32,32a13.869,13.869,0,0,1-6-1.373V28a2,2,0,0,1,2-2,3.017,3.017,0,0,0,3-3,3,3,0,0,0-3-3H24a.978.978,0,0,1-.713-.306A.965.965,0,0,1,23,19a1,1,0,0,1,1-1h6a3.017,3.017,0,0,0,3-3,3,3,0,0,0-3-3H25c-1.15,0-3.751-.273-3.978-2.662A13.894,13.894,0,0,1,32,4ZM24,28v1.485l-.055-.037a14.224,14.224,0,0,1-1.168-.923c-.065-.057-.131-.114-.194-.172a13.965,13.965,0,0,1-1.029-1.036c-.053-.06-.1-.122-.157-.182a14.385,14.385,0,0,1-.917-1.176l-.068-.106a14.024,14.024,0,0,1-.767-1.272c-.02-.037-.042-.073-.061-.11a13.589,13.589,0,0,1-.612-1.359c-.03-.075-.06-.148-.088-.224a13.824,13.824,0,0,1-.435-1.39c-.022-.085-.042-.17-.062-.255a13.917,13.917,0,0,1-.27-1.458c-.008-.068-.013-.137-.021-.205A14.02,14.02,0,0,1,18,18a14.381,14.381,0,0,1,.092-1.531c.013-.123.028-.245.044-.366a13.888,13.888,0,0,1,.274-1.486c0-.02.011-.039.016-.058a13.7,13.7,0,0,1,.437-1.388c.041-.111.082-.222.126-.332a13.779,13.779,0,0,1,.623-1.368l.013-.022C20.553,13.05,22.464,14,25,14h5a1,1,0,0,1,1,1,.978.978,0,0,1-.306.712A.957.957,0,0,1,30,16H24a3,3,0,0,0-3,3,3.015,3.015,0,0,0,3,3h4a1,1,0,0,1,1,1,.978.978,0,0,1-.306.712A.957.957,0,0,1,28,24a4,4,0,0,0-4,4ZM11,40a3,3,0,0,1,0-6H44.692a5.819,5.819,0,0,0,0,6H11ZM4.872,50.882A3.018,3.018,0,0,1,7,50H40.694a5.788,5.788,0,0,0-.737,2H19a5.009,5.009,0,0,0-4.9,4H7a3,3,0,0,1-2.128-5.118Z"/></svg>